<mxfile host="app.diagrams.net" modified="2023-03-26T02:59:51.590Z" agent="Mozilla/5.0 (Macintosh; Intel Mac OS X 10_15_7) AppleWebKit/605.1.15 (KHTML, like Gecko) Version/15.3 Safari/605.1.15" version="21.1.1" etag="f8Tu79MOCdcIatr5wMFh" type="github">
  <diagram name="第 1 页" id="ZsebEWmIuQGuSLaA-yER">
    <mxGraphModel>
      <root>
        <mxCell id="0" />
        <mxCell id="1" parent="0" />
      </root>
    </mxGraphModel>
  </diagram>
</mxfile>
